<?xml version="1.0" standalone="no"?>
<!DOCTYPE svg PUBLIC "-//W3C//DTD SVG 20010904//EN"
 "http://www.w3.org/TR/2001/REC-SVG-20010904/DTD/svg10.dtd">
<svg version="1.0" xmlns="http://www.w3.org/2000/svg"
 width="1024.000000pt" height="1024.000000pt" viewBox="0 0 1024.000000 1024.000000"
 preserveAspectRatio="xMidYMid meet">
<metadata>
Created by potrace 1.11, written by Peter Selinger 2001-2013
</metadata>
<g transform="translate(0.000000,1024.000000) scale(0.100000,-0.100000)"
fill="#000000" stroke="none">
<path d="M617 10234 c-1 -1 -24 -5 -50 -8 -85 -12 -211 -67 -290 -128 -132
-103 -215 -229 -257 -392 -20 -79 -20 -102 -20 -4615 0 -3985 2 -4544 15
-4599 44 -186 161 -347 327 -448 l63 -39 1785 0 1785 0 1 1030 c1 567 4 1039
7 1050 13 48 27 73 62 108 73 73 1 69 1394 72 685 2 1264 5 1286 8 22 2 69 8
105 11 36 4 83 9 105 12 59 7 168 24 174 28 3 2 26 7 51 10 44 6 140 29 253
60 215 59 522 212 667 331 138 114 291 287 345 392 10 21 27 49 36 63 28 44
98 217 123 307 57 205 71 318 71 578 0 164 -6 270 -20 350 -89 505 -315 847
-728 1099 -59 36 -110 66 -113 66 -3 0 -38 15 -77 34 -114 53 -346 132 -448
151 -13 3 -46 9 -74 15 -83 17 -98 20 -145 26 -25 3 -52 7 -60 9 -8 2 -42 7
-75 10 -33 3 -76 8 -96 11 -106 14 -318 16 -1444 18 l-1230 2 -41 22 c-92 48
-126 117 -126 257 0 140 30 203 115 244 l44 21 1189 -1 c654 0 1232 -2 1284
-4 223 -7 483 -35 673 -71 17 -4 39 -7 47 -9 31 -4 138 -29 225 -52 50 -13 97
-26 105 -27 24 -6 222 -73 255 -87 17 -6 35 -13 42 -15 30 -6 309 -149 388
-199 184 -115 386 -289 490 -420 22 -27 46 -56 53 -63 28 -30 142 -213 186
-300 71 -138 147 -352 172 -482 3 -14 9 -41 14 -60 5 -19 11 -55 14 -80 3 -25
8 -55 10 -67 26 -129 26 -621 2 -750 -3 -11 -7 -38 -10 -59 -14 -86 -19 -112
-38 -189 -64 -262 -164 -490 -305 -695 -259 -375 -663 -663 -1168 -832 -66
-22 -130 -42 -142 -44 -12 -2 -35 -9 -50 -15 -15 -6 -59 -17 -98 -26 -38 -8
-99 -21 -135 -29 -67 -14 -270 -48 -350 -58 -63 -8 -223 -21 -380 -32 -47 -3
-470 -6 -941 -6 -755 -1 -861 -3 -906 -17 -91 -28 -142 -85 -159 -176 -4 -22
-7 -375 -7 -785 l0 -745 2639 0 2639 0 65 39 c96 58 206 175 258 275 l42 83 0
4688 c0 3307 -3 4697 -11 4717 -6 15 -9 28 -7 28 1 0 -7 14 -20 32 -12 17 -22
34 -22 37 0 13 -78 112 -116 147 -83 76 -165 124 -284 165 -53 18 -114 19
-1760 19 l-1705 0 -1 -1065 c0 -988 -2 -1068 -18 -1105 -28 -65 -85 -115 -149
-132 -12 -4 -542 -7 -1177 -8 -1337 -3 -1366 -3 -1710 -51 -55 -8 -282 -54
-315 -64 -321 -98 -516 -189 -704 -331 -340 -255 -548 -642 -598 -1109 -9 -92
-10 -378 0 -480 37 -401 184 -728 442 -986 233 -233 549 -394 955 -488 96 -22
272 -51 375 -61 33 -4 78 -9 100 -12 22 -4 616 -8 1320 -10 820 -2 1294 -7
1318 -14 47 -12 112 -70 139 -123 17 -33 20 -58 20 -142 -2 -148 -30 -205
-122 -247 -45 -20 -58 -20 -1265 -21 -1076 0 -1341 3 -1500 19 -103 10 -163
16 -192 21 -158 21 -216 31 -328 55 -55 11 -108 22 -117 24 -92 19 -335 98
-468 152 -172 71 -430 216 -549 309 -65 52 -203 178 -259 239 -241 258 -427
639 -487 1000 -3 17 -7 41 -10 54 -2 13 -7 49 -11 80 -3 31 -8 65 -11 76 -9
39 -10 452 -2 540 11 105 43 294 64 380 9 33 18 70 20 82 8 36 65 193 94 258
229 522 653 907 1251 1133 153 58 375 123 500 146 14 3 50 10 80 16 82 16 112
21 145 26 30 3 82 11 140 20 28 5 58 8 185 18 30 3 89 8 130 12 41 4 482 8
980 9 720 1 913 4 945 15 62 20 113 61 137 110 l23 45 3 806 2 806 -2535 0
c-1394 0 -2536 -1 -2538 -3z"/>
</g>
</svg>
