<svg id="Layer_1" data-name="Layer 1" xmlns="http://www.w3.org/2000/svg" viewBox="0 0 235.61 37.17"><defs><style>.cls-1{fill:#ffc72c;}</style></defs><title>Gold</title><path class="cls-1" d="M52.78,18.69H40.94v7.43h0c0,.62-.34.93-1,.93H32.3c-5.47,0-8.28,2.33-8.28,6.51S26.83,40,32.21,40h7.86a.82.82,0,0,1,.86.89v.28c0,.54-.3.81-.86.81H32.26c-6.81,0-10.6-3.06-10.6-8.36s3.7-8.53,10.82-8.53h5.2c.65,0,1-.31,1-.93V18.69h-18a2.51,2.51,0,0,0-2.52,2.51V53.34a2.52,2.52,0,0,0,2.52,2.52H32.48V48.43h0c0-.62.35-.93,1-.93h7.65c5.47,0,8.28-2.32,8.28-6.5s-2.81-6.46-8.19-6.46H33.36a.82.82,0,0,1-.87-.89v-.27c0-.54.3-.81.86-.82h7.81c6.81,0,10.6,3.06,10.6,8.36s-3.7,8.53-10.82,8.53h-5.2a.86.86,0,0,0-1,.94v5.49h18a2.52,2.52,0,0,0,2.52-2.52V21.2a2.51,2.51,0,0,0-2.52-2.51" transform="translate(-18.12 -18.69)"/><path class="cls-1" d="M70.77,29c4.23,0,6.2,1.3,6.2,4.1,0,1.92-1.08,3.07-3.34,3.57,2.92.52,4.38,2,4.38,4.25,0,3.09-2.32,4.67-6.79,4.67H64.47V29ZM66,36.23H70c3.66,0,5.41-1,5.41-3.08s-1.29-3.07-4.63-3.07H66Zm5.15,8.24c3.55,0,5.29-1.2,5.29-3.62s-1.74-3.55-5.72-3.55H66v7.17Z" transform="translate(-18.12 -18.69)"/><rect class="cls-1" x="62.51" y="10.29" width="1.49" height="16.59"/><polygon class="cls-1" points="80.68 11.42 74.13 11.42 74.13 26.88 72.64 26.88 72.64 11.42 66.06 11.42 66.06 10.29 80.68 10.29 80.68 11.42"/><path class="cls-1" d="M98.35,37.32c0-5.37,3.86-8.62,8.7-8.62,3.89,0,7.32,1.68,8.09,6.52l-1.54.05c-.66-4.32-3.46-5.44-6.52-5.44-4,0-7.16,2.72-7.16,7.37v.12c0,4.7,3.15,7.37,7.16,7.37,2.91,0,5.89-1.1,6.52-5.47l1.54.05c-.74,4.87-4.26,6.57-8.12,6.57-4.81,0-8.67-3.27-8.67-8.52" transform="translate(-18.12 -18.69)"/><path class="cls-1" d="M117,37.25c0-5.2,3.57-8.55,9.18-8.55s9,3.4,9,8.6-3.58,8.54-9.18,8.54-9-3.4-9-8.59m16.67.17v-.25c0-4.47-2.89-7.32-7.52-7.32s-7.61,2.8-7.61,7.27v.25c0,4.48,2.86,7.32,7.53,7.32s7.6-2.79,7.6-7.27" transform="translate(-18.12 -18.69)"/><rect class="cls-1" x="119.94" y="10.29" width="1.49" height="16.59"/><polygon class="cls-1" points="138.88 25.08 138.88 10.29 140.31 10.29 140.31 26.93 138.71 26.93 126.63 11.89 126.63 26.88 125.2 26.88 125.2 10.29 127.06 10.29 138.88 25.08"/><path class="cls-1" d="M173.4,29c5.12,0,7.58,1.57,7.58,5s-2.46,5.09-7.7,5.09h-3.6v6.5h-2.06V29Zm-3.72,8.57h3.63c3.89,0,5.55-1,5.55-3.57s-1.54-3.48-5.46-3.48h-3.72Z" transform="translate(-18.12 -18.69)"/><polygon class="cls-1" points="180.45 26.88 178.39 26.88 178.39 19.24 167.63 19.24 167.63 26.88 165.57 26.88 165.57 10.29 167.63 10.29 167.63 17.64 178.39 17.64 178.39 10.29 180.45 10.29 180.45 26.88"/><rect class="cls-1" x="184.03" y="10.29" width="2.06" height="16.59"/><path class="cls-1" d="M214.43,29c4.2,0,6.29,1.37,6.29,4.22,0,1.8-1.06,2.95-3.12,3.5,2.66.57,4.06,1.95,4.06,4.15,0,3.14-2.34,4.72-6.89,4.72h-7V29Zm-4.61,7.07h4c3.23,0,4.78-.93,4.78-2.75s-1.09-2.77-4.07-2.77h-4.66Zm4.81,8c3.2,0,4.8-1.05,4.8-3.25s-1.6-3.2-5.09-3.2h-4.52V44Z" transform="translate(-18.12 -18.69)"/><polygon class="cls-1" points="215.04 18.91 208.06 18.91 208.06 25.31 219.28 25.31 219.28 26.88 206 26.88 206 10.29 218.65 10.29 218.65 11.87 208.06 11.87 208.06 17.34 215.04 17.34 215.04 18.91"/><path class="cls-1" d="M246.21,29c4.75,0,7,1.5,7,4.3,0,2.29-1.43,4.14-4.83,4.57,3.38.8,4.78,3.3,5.29,7.09l.09.63h-2.12l-.06-.45c-.54-3.8-2.08-6.55-6.52-6.55h-3.23v7h-2.06V29Zm-4.4,8.09h3.8c4,0,5.52-1.62,5.52-3.67s-1.51-2.9-4.86-2.9h-4.46Z" transform="translate(-18.12 -18.69)"/></svg>